# xmcd CD database file
#
# Track frame offsets:
#	150
#	12002
#	24378
#	41318
#	53893
#	66500
#	82828
#	96826
#	110106
#	122375
#	134272
#	145033
#	158427
#	171660
#	184657
#	202266
#	215526
#	228440
#	244429
#	256965
#
# Disc length: 3581 seconds
#
# Revision: 1
# Processed by: cddbd v1.5.2PL0 Copyright (c) Steve Scherf et al.
# Submitted via: CDValet v3.40 - Copyright (c) 1996 - 1998 Greg Leichner
#
DISCID=170dfb14
DTITLE=Haggard, Merle - 20 Hits Volume 2
DYEAR=1900
DGENRE=
TTITLE0=Turnin' Off A Memory
TTITLE1=If We Make It Through December
TTITLE2=Today I Started Loving You Again
TTITLE3=Silver Wings
TTITLE4=It's Been A Great Afternoon
TTITLE5=Ramblin' Fever
TTITLE6=Always Wanting You
TTITLE7=Farmer's Daughter
TTITLE8=The Roots Of My Raising
TTITLE9=Things Aren't Funny Anymore
TTITLE10=Old Man From The Mountain
TTITLE11=Cherokee Maiden
TTITLE12=Holding Things Together
TTITLE13=Kentucky Gambler
TTITLE14=I Think I'll Just Stay Here And Drink
TTITLE15=The Way I Am
TTITLE16=Misery And Gin
TTITLE17=It's All In The Movies
TTITLE18=I'm Always On A Mountain When I Fall
TTITLE19=From Graceland To The Promised Land
EXTD=
EXTT0=
EXTT1=
EXTT2=
EXTT3=
EXTT4=
EXTT5=
EXTT6=
EXTT7=
EXTT8=
EXTT9=
EXTT10=
EXTT11=
EXTT12=
EXTT13=
EXTT14=
EXTT15=
EXTT16=
EXTT17=
EXTT18=
EXTT19=
PLAYORDER=
